<svg width="538" height="853" viewBox="0 0 538 853" fill="none" xmlns="http://www.w3.org/2000/svg">
<path d="M98.0254 853C98.0254 782.083 99.4408 574.962 99.4408 482.694C168.284 480.406 226.929 480.406 294.498 480.406C323.182 480.406 355.692 484.219 379.277 491.082L402.225 380.512L390.751 376.699C390.114 376.699 352.505 366.024 296.41 366.024C218.642 366.024 175.934 368.311 99.4408 368.311V118.195C216.092 117.433 298.322 116.67 364.616 116.67H409.237C471.706 117.433 485.73 127.346 502.303 138.021L538 26.6892C516.327 13.7259 485.73 2.28765 436.647 0H0V853H98.0254Z" fill="#C987F1" fill-opacity="0.51"/>
</svg>
