<svg width="539" height="543" viewBox="0 0 539 543" fill="none" xmlns="http://www.w3.org/2000/svg">
<path d="M439.374 543C439.374 471.897 439.374 576.469 439.374 483.959C370.403 481.665 311.649 481.666 243.955 481.666C215.217 481.666 182.647 485.488 159.018 492.369L136.027 381.51L147.523 377.687C148.161 377.687 185.84 366.983 242.039 366.983C319.951 366.983 362.739 369.277 439.374 369.277V118.505C322.506 117.74 240.123 116.976 173.706 116.976H129.002C66.4171 117.74 52.3673 127.68 35.7631 138.383L0 26.7592C21.7133 13.7619 52.3673 2.29365 101.541 0H539V543H439.374Z" fill="#C987F1" fill-opacity="0.51"/>
</svg>
