<svg width="540" height="991" viewBox="0 0 540 991" fill="none" xmlns="http://www.w3.org/2000/svg">
<path d="M103.933 991C103.933 920.051 100.741 575.222 100.741 482.912C169.694 480.624 228.433 480.624 296.109 480.624C324.84 480.624 357.401 484.438 381.024 491.304L404.008 380.684L392.516 376.87C391.878 376.87 354.209 366.189 298.024 366.189C220.133 366.189 177.356 368.478 100.741 368.478V118.249C217.579 117.486 299.94 116.723 366.339 116.723H411.031C473.6 117.486 487.646 127.403 504.246 138.084L540 26.7013C518.292 13.7321 487.646 2.28868 438.485 0H1.14165L0 991H103.933Z" fill="#C987F1" fill-opacity="0.51"/>
</svg>
