<svg width="1367" height="947" viewBox="0 0 1367 947" fill="none" xmlns="http://www.w3.org/2000/svg">
<path d="M1257 243.99C1257 311.059 1200.62 365.49 1131 365.49C1061.38 365.49 1005 311.059 1005 243.99C1005 176.922 1061.38 122.49 1131 122.49C1200.62 122.49 1257 176.922 1257 243.99Z" stroke="black" stroke-width="2"/>
<path d="M1246 319.99C1246 387.063 1189.84 441.49 1120.5 441.49C1051.16 441.49 995 387.063 995 319.99C995 252.918 1051.16 198.49 1120.5 198.49C1189.84 198.49 1246 252.918 1246 319.99Z" stroke="black" stroke-width="2"/>
<path d="M1275.07 1L1266.23 487.991" stroke="black" stroke-width="3"/>
<path d="M955.862 121.51L964.506 112.833L973.183 121.477L964.539 130.154L955.862 121.51ZM1347.88 122.279L964.525 122.993L964.52 119.993L1347.87 119.279L1347.88 122.279Z" fill="black"/>
<path d="M313.731 115.554L253.269 435.408" stroke="black" stroke-width="3"/>
<path d="M288.896 135L238.794 434.342" stroke="black" stroke-width="3"/>
<path d="M615.975 120.218L579.344 405.356" stroke="black" stroke-width="3"/>
<path d="M592.449 116.396L555.048 424.707" stroke="black" stroke-width="3"/>
<path d="M238.408 116.054L230 432.766" stroke="black" stroke-width="3"/>
<path d="M121.258 434.569L129.932 443.215L138.578 434.54L129.904 425.894L121.258 434.569ZM764.998 431.998L129.915 433.055L129.92 436.055L765.002 434.998L764.998 431.998Z" fill="black"/>
<path d="M74.5856 547.044L86.573 549.629L83.9604 561.579L71.973 558.994L74.5856 547.044ZM267.624 849.097L78.0086 555.122L80.5374 553.5L270.153 847.474L267.624 849.097Z" fill="black"/>
<path d="M465.101 878.726L256.291 552.188" stroke="black" stroke-width="3"/>
<path d="M20.8489 553.052L29.5335 561.688L38.1693 553.004L29.4847 544.367L20.8489 553.052ZM785.977 549.433L29.5049 551.528L29.5133 554.528L785.986 552.433L785.977 549.433Z" fill="black"/>
<path d="M810.074 877.639L53.6019 879.734" stroke="black" stroke-width="3"/>
<path d="M562 612.5C578.795 612.5 592.5 599.342 592.5 583C592.5 566.658 578.795 553.5 562 553.5C545.205 553.5 531.5 566.658 531.5 583C531.5 599.342 545.205 612.5 562 612.5Z" stroke="black" stroke-width="3"/>
<path d="M1366.63 594.427L948.586 591.564" stroke="black" stroke-width="3"/>
<path d="M1286.01 875.016L868 868.629" stroke="black" stroke-width="3"/>
<path d="M1271.97 946L1265.5 519.996" stroke="black" stroke-width="3"/>
<path d="M1104.91 877.671L1115.31 871.316L1108.9 860.819L1098.5 867.174L1104.91 877.671ZM1170.98 592.643L1105.45 868.886L1108.36 869.604L1173.89 593.36L1170.98 592.643Z" fill="black"/>
<path d="M969.5 870.5C987.15 870.5 1001.5 856.42 1001.5 839C1001.5 821.58 987.15 807.5 969.5 807.5C951.85 807.5 937.5 821.58 937.5 839C937.5 856.42 951.85 870.5 969.5 870.5Z" stroke="black" stroke-width="3"/>
</svg>
