<svg width="1254" height="867" viewBox="0 0 1254 867" fill="none" xmlns="http://www.w3.org/2000/svg">
<ellipse cx="660" cy="73.5" rx="73" ry="73.5" fill="#A9FF66"/>
<path d="M656.178 105C659.889 105 663.803 104.621 667.92 103.862C672.036 103.172 676.051 102.069 679.965 100.552C683.879 98.9655 687.388 97 690.492 94.6552H697.881C701.525 90.7241 703.347 83.5862 703.347 73.2414C703.347 70.6207 703.111 68.0345 702.639 65.4828C702.166 62.8621 701.525 60.4828 700.716 58.3448C699.906 56.2069 698.995 54.5517 697.983 53.3793C697.848 53.3104 697.443 53.3104 696.768 53.3793C696.026 53.4483 695.25 53.5172 694.44 53.5862C693.563 53.5862 692.854 53.5862 692.314 53.5862C691.099 53.5862 690.087 53.5172 689.277 53.3793C688.4 53.1724 687.388 52.7242 686.241 52.0345C685.094 51.3448 683.575 50.2414 681.686 48.7241C678.514 46.1724 675.748 44.4138 673.386 43.4483C671.024 42.4828 668.325 42 665.288 42C658.337 42 652.703 42.8966 648.384 44.6897C646.157 45.5862 644.2 46.3103 642.513 46.8621C640.759 47.4138 639.443 47.8276 638.565 48.1035C637.351 48.3793 636.271 48.8966 635.326 49.6552C633.842 49.7241 632.391 49.8276 630.974 49.9655C629.489 50.1034 628.005 50.2414 626.52 50.3793C624.158 50.6552 621.661 50.9655 619.03 51.3103C616.33 51.5862 613.935 51.8621 611.843 52.1379C607.659 52.6207 604.656 53.5172 602.834 54.8276C600.945 56.1379 600 58.0345 600 60.5172C600 65.2759 603.307 67.6552 609.92 67.6552C611.067 67.6552 612.72 67.6207 614.88 67.5517C616.971 67.4138 619.097 67.3448 621.257 67.3448C622.876 67.3448 624.462 67.3793 626.014 67.4483C627.566 67.5172 629.084 67.6207 630.569 67.7586C629.489 69.3448 628.949 71.3448 628.949 73.7586C628.949 76.8621 630.4 79.069 633.302 80.3793C634.247 80.7931 634.719 81.3103 634.719 81.931C634.719 82.4828 634.55 83.1724 634.213 84C633.876 84.7586 633.707 85.6207 633.707 86.5862C633.707 90.1724 635.36 92.5517 638.667 93.7241C639.139 93.8621 639.443 94.069 639.578 94.3448C639.645 94.5517 639.679 95.0345 639.679 95.7931C639.679 98.8965 641.096 101.207 643.93 102.724C646.697 104.241 650.78 105 656.178 105ZM656.178 101.483H652.129C652.939 101.207 653.917 100.862 655.065 100.448C656.144 99.9655 657.46 99.3103 659.012 98.4828C661.037 97.3793 662.859 96.1724 664.478 94.8621C666.098 93.5517 667.279 92.3448 668.021 91.2414C668.223 90.6897 668.325 90 668.325 89.1724C668.325 88.4828 668.19 87.8621 667.92 87.3103C667.65 86.6897 667.346 86.1724 667.009 85.7586C668.291 85.069 669.472 84.4138 670.551 83.7931C671.564 83.1724 672.34 82.6207 672.88 82.1379C673.15 81.7931 673.386 81.3793 673.588 80.8966C673.791 80.3448 673.926 79.7241 673.993 79.0345C674.87 79.3103 675.849 79.5172 676.928 79.6552C677.941 79.7931 679.02 79.8621 680.168 79.8621C681.855 79.8621 683.373 79.6897 684.723 79.3448V75.7241C684.183 75.8621 683.474 75.9655 682.597 76.0345C681.652 76.1035 680.842 76.1379 680.168 76.1379C678.75 76.1379 677.468 76.069 676.321 75.931C675.174 75.7241 674.162 75.3793 673.284 74.8965C672.272 73.1034 670.754 72.1034 668.729 71.8966C669.067 70.8621 669.236 69.8621 669.236 68.8966C669.236 67.1035 668.696 65.5862 667.616 64.3448C666.536 63.0345 664.951 62.3793 662.859 62.3793C662.116 62.3793 661.374 62.4828 660.632 62.6897C659.822 62.8966 659.012 63.1724 658.202 63.5172C657.933 63.1724 657.663 62.7931 657.393 62.3793C657.123 61.9655 656.853 61.5173 656.583 61.0345C658.877 60.4138 660.429 59.6897 661.239 58.8621L658.506 56.3793C658.169 56.7241 657.359 57.1035 656.077 57.5173C654.795 57.8621 653.276 58.2069 651.522 58.5517C649.767 58.8966 648.047 59.2069 646.36 59.4828C644.672 59.6897 643.323 59.7931 642.311 59.7931C640.961 59.7931 639.746 59.3448 638.667 58.4483C637.519 57.5517 636.946 56.1379 636.946 54.2069V53.1724H637.047C637.047 53.0345 637.317 52.7931 637.857 52.4483C638.397 52.1035 638.937 51.8621 639.476 51.7241C640.354 51.4483 641.703 51.0345 643.525 50.4828C645.347 49.8621 647.439 49.069 649.801 48.1035C653.647 46.5173 658.81 45.7241 665.288 45.7241C667.92 45.7241 670.248 46.1379 672.272 46.9655C674.229 47.7931 676.625 49.3793 679.459 51.7241C681.416 53.3104 683.069 54.5172 684.419 55.3448C685.768 56.1724 687.051 56.7241 688.265 57C689.412 57.2069 690.762 57.3103 692.314 57.3103C692.787 57.3103 693.394 57.3103 694.136 57.3103C694.878 57.2414 695.553 57.1724 696.161 57.1034C697.173 58.8966 698.016 61.2759 698.691 64.2414C699.366 67.2069 699.703 70.2069 699.703 73.2414C699.703 81.4483 698.522 87.3448 696.161 90.931H689.277C686.781 93.069 683.778 94.931 680.269 96.5172C676.76 98.1034 672.947 99.3448 668.831 100.241C664.714 101.069 660.497 101.483 656.178 101.483ZM707.599 98.069C709.218 98.069 710.602 97.2759 711.749 95.6897C712.828 94.1034 713.672 92.069 714.279 89.5862C714.887 87.1034 715.325 84.4828 715.595 81.7241C715.865 78.8966 716 76.3104 716 73.9655C716 71.6207 715.865 69.069 715.595 66.3104C715.325 63.4828 714.887 60.8276 714.279 58.3448C713.604 55.8621 712.727 53.8276 711.647 52.2414C710.568 50.5862 709.218 49.7586 707.599 49.7586H700.007C698.657 49.7586 697.983 50.5862 697.983 52.2414V52.4483C698.387 51.9655 698.894 51.7241 699.501 51.7241C700.918 51.7241 702.099 52.4483 703.044 53.8966C703.988 55.2759 704.731 57.1034 705.271 59.3793C705.743 61.5862 706.114 64 706.384 66.6207C706.586 69.1724 706.688 71.6207 706.688 73.9655C706.688 76.3104 706.586 78.7931 706.384 81.4138C706.114 84.0345 705.709 86.4828 705.169 88.7586C704.562 90.9655 703.82 92.7931 702.942 94.2414C701.998 95.6207 700.85 96.3103 699.501 96.3103C698.894 96.3103 698.387 95.9655 697.983 95.2759V96C697.983 96.5517 698.151 97.0345 698.489 97.4483C698.759 97.8621 699.265 98.069 700.007 98.069H707.599ZM644.538 67.6552C644.2 66.4138 643.39 65.4828 642.108 64.8621C640.826 64.2414 639.443 63.931 637.958 63.931C637.013 63.931 636.271 63.9655 635.731 64.0345C635.191 64.0345 634.685 64.1035 634.213 64.2414C632.188 64.1035 630.029 63.9655 627.735 63.8276C625.373 63.6897 623.213 63.6207 621.257 63.6207C619.097 63.6207 616.938 63.6897 614.778 63.8276C612.619 63.8966 610.999 63.931 609.92 63.931C607.49 63.931 605.837 63.6552 604.96 63.1035C604.083 62.5517 603.644 61.6897 603.644 60.5172C603.644 59.2069 604.285 58.2414 605.567 57.6207C606.782 56.931 609.042 56.3448 612.349 55.8621C614.373 55.5172 616.702 55.2069 619.333 54.931C621.898 54.6552 624.462 54.3793 627.026 54.1035C627.903 53.9655 628.916 53.8621 630.063 53.7931C631.143 53.7241 632.256 53.6552 633.403 53.5862V54.1035C633.403 57.069 634.28 59.3793 636.035 61.0345C637.722 62.6897 639.746 63.5172 642.108 63.5172C643.39 63.5172 645.044 63.3793 647.068 63.1035C649.092 62.8276 651.083 62.4483 653.04 61.9655C653.31 62.4483 653.58 62.931 653.85 63.4138C654.12 63.8966 654.424 64.3793 654.761 64.8621H654.66C653.782 65.1379 652.534 65.5862 650.914 66.2069C649.295 66.7586 647.169 67.2414 644.538 67.6552ZM640.995 79.5517C639.578 79.5517 637.654 78.7931 635.225 77.2759C634.078 76.5172 633.369 75.9655 633.099 75.6207C632.762 75.2759 632.593 74.7586 632.593 74.069C632.593 72.8276 632.728 71.6552 632.998 70.5517C633.268 69.3793 633.876 68.4138 634.82 67.6552C635.158 67.5862 635.495 67.5517 635.832 67.5517C636.102 67.5517 636.372 67.5517 636.642 67.5517C638.532 67.5517 639.848 67.931 640.59 68.6897C641.265 69.3793 641.602 70.4138 641.602 71.7931C644.909 71.4483 647.608 70.9655 649.7 70.3448C651.724 69.6552 653.681 68.9655 655.571 68.2759C656.853 67.8621 658.135 67.3103 659.417 66.6207C660.699 65.931 661.914 65.6552 663.061 65.7931C663.601 65.8621 664.175 66.1034 664.782 66.5172C665.389 66.8621 665.693 67.5173 665.693 68.4828C665.693 68.8966 665.625 69.3793 665.49 69.931C665.288 70.4828 665.153 70.8276 665.086 70.9655C664.141 71.7241 662.69 72.6897 660.733 73.8621C658.709 75.0345 656.043 76.2069 652.736 77.3793C650.78 78.069 648.654 78.6207 646.36 79.0345C644.065 79.3793 642.277 79.5517 640.995 79.5517ZM642.614 91.0345C641.062 91.0345 639.746 90.7241 638.667 90.1035C637.519 89.4828 636.946 88.4483 636.946 87C636.946 86.1724 637.047 85.3793 637.25 84.6207C637.385 83.8621 637.553 83.2414 637.756 82.7586C638.565 83.1035 639.476 83.2759 640.489 83.2759C641.231 83.2759 642.344 83.1724 643.829 82.9655C645.314 82.7586 646.899 82.4828 648.586 82.1379C650.206 81.7931 651.758 81.3793 653.243 80.8966C655.537 80.1379 657.764 79.2414 659.923 78.2069C662.015 77.1724 663.871 76.1379 665.49 75.1034C666.368 74.7586 667.11 74.5862 667.717 74.5862C668.595 74.5862 669.303 74.931 669.843 75.6207C670.383 76.3104 670.653 77.1034 670.653 78C670.653 78.8276 670.417 79.6207 669.944 80.3793C669.269 80.8621 668.19 81.5172 666.705 82.3448C665.22 83.1724 663.601 84.0345 661.846 84.931C660.024 85.7586 658.371 86.4828 656.887 87.1034C653.917 88.2759 651.286 89.2414 648.991 90C646.629 90.6897 644.504 91.0345 642.614 91.0345ZM646.461 99C644.841 99 643.829 98.5172 643.424 97.5517C642.952 96.5172 642.716 95.6207 642.716 94.8621C642.716 94.5862 642.749 94.3793 642.817 94.2414H643.525C646.292 94.2414 648.924 93.7586 651.421 92.7931C653.85 91.7586 656.009 90.8621 657.899 90.1035C658.709 89.7586 659.62 89.3448 660.632 88.8621C661.644 88.3793 662.656 87.8965 663.668 87.4138C664.343 88.1034 664.748 88.9655 664.883 90C664.343 90.7586 663.466 91.6552 662.251 92.6897C661.037 93.6552 659.755 94.5172 658.405 95.2759C657.19 95.9655 656.077 96.5862 655.065 97.1379C653.985 97.6897 652.804 98.1379 651.522 98.4828C650.172 98.8276 648.485 99 646.461 99Z" fill="black"/>
<rect x="479" y="392" width="507" height="42.3064" fill="#A9FF66"/>
<ellipse cx="1188" cy="98.5" rx="66" ry="66.5" fill="#A9FF66"/>
<path d="M1152 147V50H1178.27C1186.62 50 1192.76 52.8077 1196.7 58.423C1200.64 64.0383 1202.62 71.4197 1202.62 80.5672V122.275H1193.4V80.7031C1193.4 73.6387 1191.96 68.3403 1189.08 64.8081C1186.27 61.1853 1182.29 59.374 1177.14 59.374H1161.21V147H1152ZM1172.7 74.7255H1181.91V137.626H1197.38C1203.15 137.626 1207.47 135.815 1210.35 132.192C1213.31 128.479 1214.79 123.135 1214.79 116.161V50H1224V116.161C1224 122.048 1223.13 127.346 1221.38 132.056C1219.64 136.675 1216.87 140.343 1213.08 143.06C1209.29 145.687 1204.32 147 1198.18 147H1172.7V74.7255Z" fill="black"/>
<path d="M923.303 397.548H976.712V428.758H923.303V397.548Z" fill="white"/>
<ellipse cx="370.5" cy="505.5" rx="61.5" ry="62.5" fill="#A9FF66"/>
<ellipse cx="925.5" cy="171" rx="63.5" ry="64" fill="black"/>
<ellipse cx="67.5" cy="463" rx="67.5" ry="68" fill="black"/>
<ellipse cx="728.5" cy="237.5" rx="67.5" ry="66.5" fill="#67467C"/>
<ellipse cx="872.5" cy="808" rx="58.5" ry="59" fill="#67467C"/>
<ellipse cx="134.5" cy="781" rx="62.5" ry="63" fill="#67467C"/>
<rect width="449.704" height="42.7502" transform="matrix(0.150683 -0.988582 0.991389 0.130951 981.578 615.883)" fill="black"/>
<rect width="55.4322" height="31.0327" transform="matrix(0.14445 -0.989512 0.989199 0.14658 1045.38 241.015)" fill="white"/>
<rect width="473.659" height="40.3217" transform="matrix(0.878957 -0.476902 0.549513 0.835485 511.518 763.712)" fill="#67467C"/>
<rect width="51.1259" height="28.6567" transform="matrix(0.866142 -0.499798 0.512712 0.85856 882.523 569.825)" fill="white"/>
<path d="M380.383 516.552L371.444 516.7C367.346 516.898 364.58 516.898 361.617 517.54L370.802 487.56L380.383 516.552ZM366.111 469.532C366.111 467.804 367.84 466.124 370.407 466.124C372.975 466.124 374.605 467.804 374.605 469.532C374.605 471.261 372.926 473.088 370.407 473.088C367.889 473.088 366.111 471.261 366.111 469.532ZM359.741 469.631C359.741 473.533 362.309 476.793 365.864 478.324L348.58 533.147C347.938 535.271 347.049 539.617 347 541H355C355 539.617 355.691 536.456 356.185 535.024L359.099 526.183C364.58 524.849 375.494 524.751 382.457 524.602L385.914 534.974C386.309 536.308 386.901 539.864 386.901 541H395C394.901 538.333 394.012 534.332 393.469 532.505L375.296 478.225C378.704 476.645 381.123 473.434 381.123 469.631C381.123 464.149 376.136 460 370.457 460C364.778 460 359.741 464.149 359.741 469.631Z" fill="black"/>
<path d="M703.588 254.191C703.588 246.361 707.263 239.926 713.362 239.926C717.584 239.926 720.868 240.624 724.23 242.562V253.959C723.292 259.618 720.321 266.751 713.284 266.751C706.794 266.751 703.588 262.564 703.588 254.191ZM736.193 231.631C736.193 219.072 737.053 211.939 747.062 211.939C752.535 211.939 754.255 222.793 754.255 231.011C747.687 231.011 743.152 231.166 736.193 231.631ZM729.235 271.79C733.613 276.364 739.243 278.922 745.576 278.922C751.597 278.922 759.728 275.899 767 266.131L758.634 258.378C755.663 262.487 751.675 266.828 747.062 266.828C742.136 266.828 738.148 264.502 736.193 262.254V243.26L766.062 242.485C766.062 227.057 765.436 200 746.358 200C736.819 200 733.066 204.109 729.86 208.838C728.922 207.365 727.436 205.504 725.951 204.264C721.181 200.62 717.584 200 713.206 200C703.588 200 698.506 203.411 691.86 213.8L691 215.195L700.148 220.932L700.93 219.847C706.091 212.094 708.436 211.862 712.502 211.862H713.206C722.51 211.862 724.23 223.026 724.23 230.546C721.259 229.305 718.523 228.065 712.502 228.065C696.551 228.065 691.547 242.407 691.547 255.354C691.547 262.952 693.58 270.472 699.914 274.891C704.136 277.837 709.218 279 714.144 279C722.198 279 726.889 274.426 729.235 271.79Z" fill="black"/>
<path d="M145.619 779.663C145.619 790.569 141.427 798.571 132.374 798.571C123.321 798.571 119.884 793.614 119.884 783.912C119.884 772.298 123.824 764.933 132.626 764.155L133.883 764.013C141.008 764.579 145.619 770.599 145.619 779.663ZM106.053 783.983C106.053 788.09 106.388 791.56 108.149 795.455L97 806.573L105.969 813.584L116.447 804.803C120.471 807.635 124.914 809.618 131.955 809.689C137.488 809.689 142.601 808.131 146.792 805.369L157.27 815L167.162 807.494L155.007 796.517C157.941 791.702 159.115 787.099 159.282 779.805C159.282 775.414 158.528 771.307 156.6 767.27L168 756.648L158.528 749.637L149.139 757.639C144.864 754.311 140.505 752.824 133.548 752.824H132.123C126.255 753.036 121.812 754.453 117.789 757.994L107.981 749L98.0059 756.506L109.825 767.27C107.73 771.59 106.053 777.255 106.053 783.487V783.983Z" fill="black"/>
<path d="M77.241 452.919C83.6747 459.643 87.6506 466.933 87.6506 475.78C87.6506 485.76 86.0602 494.324 81.0723 498.854C77.4578 501.826 74.2771 502.959 68.7831 503.029C56.7108 503.029 50.4217 492.2 50.4217 478.399C50.4217 464.597 54.6145 452.919 77.241 452.919ZM77.3855 431.473L89.3855 428.571L87.0723 418.945L71.3133 422.697C69.2892 419.653 67.2651 416.468 65.0964 413L53.747 419.158C54.1084 419.936 55.9157 422.484 58.1566 425.74L47.1687 428.288L49.4819 437.914L64.3012 434.516C66.8313 437.985 69 440.957 69.7229 442.019C43.1205 443.718 39 465.234 39 478.753C39 498.57 48.9759 513.929 68.6386 514H68.7831C92.0602 514 99 494.324 99 475.922C99 459.43 90.1807 449.451 77.3855 431.473Z" fill="white"/>
<rect width="492.264" height="41.9055" transform="matrix(0.878957 -0.476902 0.549513 0.835485 351 747.761)" fill="#A9FF66"/>
<path d="M395.655 755.637C393.95 752.543 394.391 749.019 397.45 747.389C399.567 746.261 401.366 745.66 403.474 745.527L405.957 750.03C406.719 752.517 406.783 756.129 403.253 758.009C399.999 759.742 397.479 758.945 395.655 755.637ZM407.093 738.012C404.357 733.05 403.235 730.002 408.254 727.328C410.999 725.866 414.226 729.695 416.016 732.942C412.722 734.697 410.481 735.969 407.093 738.012ZM412.35 755.738C415.543 756.376 418.923 755.883 422.099 754.191C425.119 752.582 428.538 749.215 430.057 743.413L424.173 742.585C423.578 745.002 422.524 747.783 420.21 749.015C417.74 750.331 415.233 750.478 413.763 750.112L409.626 742.607L424.436 734.321C421.075 728.225 414.868 717.702 405.3 722.799C400.516 725.348 399.529 727.974 398.952 730.699C398.16 730.367 397.01 730.029 395.995 729.936C392.809 729.77 390.87 730.486 388.674 731.656C383.851 734.225 382.045 736.931 380.975 742.811L380.848 743.592L386.685 743.415L386.841 742.777C387.74 738.335 388.866 737.617 390.905 736.531L391.258 736.343C395.924 733.857 399.219 737.808 400.857 740.779C399.097 741.083 397.454 741.324 394.435 742.933C386.435 747.194 387.05 754.198 389.87 759.313C391.525 762.315 394.183 764.743 398.321 764.797C401.08 764.833 403.883 763.935 406.353 762.619C410.392 760.467 411.748 757.407 412.35 755.738Z" fill="black"/>
<path d="M434.665 733.835C433.137 731.064 433.724 727.805 436.783 726.175C438.9 725.047 440.683 724.417 442.748 724.205L444.971 728.238C445.605 730.491 445.506 733.809 441.977 735.689C438.723 737.423 436.298 736.798 434.665 733.835ZM446.614 717.14C444.164 712.695 443.204 709.941 448.223 707.268C450.968 705.805 453.948 709.187 455.551 712.095C452.258 713.85 450.014 715.116 446.614 717.14ZM450.96 733.211C454.048 733.66 457.371 733.062 460.547 731.37C463.566 729.761 467.054 726.519 468.795 721.119L463.087 720.611C462.398 722.859 461.246 725.46 458.932 726.693C456.462 728.009 454.008 728.251 452.589 727.978L448.883 721.256L463.711 713.002C460.701 707.542 455.108 698.133 445.541 703.23C440.757 705.779 439.676 708.236 438.991 710.766C438.233 710.495 437.125 710.233 436.138 710.191C433.035 710.176 431.11 710.917 428.915 712.087C424.091 714.656 422.208 717.221 420.902 722.674L420.743 723.397L426.45 722.984L426.631 722.39C427.706 718.268 428.837 717.559 430.876 716.473L431.229 716.285C435.895 713.799 438.936 717.291 440.403 719.952C438.671 720.307 437.057 720.599 434.037 722.207C426.038 726.469 426.327 732.881 428.853 737.463C430.335 740.152 432.822 742.27 436.86 742.142C439.552 742.057 442.328 741.111 444.799 739.795C448.837 737.643 450.298 734.771 450.96 733.211Z" fill="black"/>
<path d="M473.865 713.731C472.337 710.96 472.925 707.701 475.983 706.071C478.101 704.943 479.884 704.313 481.948 704.101L484.171 708.134C484.805 710.387 484.707 713.705 481.177 715.585C477.923 717.319 475.498 716.694 473.865 713.731ZM485.815 697.036C483.364 692.591 482.404 689.837 487.423 687.164C490.168 685.701 493.148 689.083 494.752 691.991C491.458 693.746 489.214 695.012 485.815 697.036ZM490.16 713.107C493.248 713.556 496.571 712.958 499.747 711.266C502.766 709.657 506.254 706.415 507.995 701.015L502.287 700.507C501.599 702.755 500.446 705.356 498.132 706.589C495.662 707.905 493.208 708.147 491.789 707.874L488.083 701.152L502.911 692.898C499.901 687.438 494.309 678.029 484.741 683.126C479.957 685.675 478.876 688.131 478.191 690.662C477.433 690.391 476.325 690.129 475.338 690.087C472.235 690.072 470.311 690.813 468.115 691.983C463.292 694.552 461.408 697.117 460.102 702.57L459.943 703.293L465.65 702.879L465.831 702.286C466.906 698.164 468.037 697.455 470.076 696.369L470.429 696.181C475.095 693.695 478.136 697.187 479.603 699.848C477.871 700.203 476.257 700.495 473.237 702.103C465.238 706.365 465.527 712.777 468.053 717.359C469.535 720.048 472.022 722.166 476.06 722.038C478.753 721.953 481.528 721.007 483.999 719.691C488.038 717.539 489.498 714.667 490.16 713.107Z" fill="black"/>
<path d="M511.36 693.626C509.832 690.855 510.42 687.596 513.478 685.967C515.596 684.839 517.379 684.208 519.443 683.996L521.667 688.029C522.3 690.283 522.202 693.601 518.673 695.481C515.418 697.215 512.993 696.59 511.36 693.626ZM523.31 676.932C520.859 672.487 519.899 669.733 524.918 667.059C527.663 665.597 530.643 668.978 532.247 671.887C528.953 673.641 526.709 674.908 523.31 676.932ZM527.655 693.003C530.743 693.452 534.066 692.853 537.242 691.161C540.261 689.553 543.75 686.31 545.49 680.911L539.782 680.402C539.094 682.65 537.941 685.252 535.627 686.484C533.157 687.8 530.703 688.043 529.284 687.769L525.579 681.047L540.406 672.793C537.396 667.333 531.804 657.925 522.236 663.022C517.452 665.57 516.371 668.027 515.686 670.557C514.929 670.286 513.82 670.025 512.833 669.983C509.731 669.967 507.806 670.709 505.61 671.879C500.787 674.448 498.904 677.013 497.597 682.465L497.438 683.189L503.145 682.775L503.326 682.182C504.401 678.06 505.532 677.351 507.571 676.264L507.924 676.076C512.59 673.591 515.631 677.082 517.098 679.743C515.366 680.098 513.752 680.39 510.733 681.999C502.733 686.26 503.022 692.673 505.548 697.255C507.03 699.944 509.517 702.062 513.556 701.934C516.248 701.848 519.023 700.902 521.494 699.586C525.533 697.435 526.993 694.562 527.655 693.003Z" fill="black"/>
<path d="M631.409 625.328C629.881 622.557 630.469 619.298 633.527 617.669C635.645 616.541 637.428 615.911 639.492 615.698L641.715 619.732C642.349 621.985 642.251 625.303 638.721 627.183C635.467 628.917 633.042 628.292 631.409 625.328ZM643.359 608.634C640.908 604.189 639.948 601.435 644.967 598.761C647.712 597.299 650.692 600.681 652.296 603.589C649.002 605.344 646.758 606.61 643.359 608.634ZM647.704 624.705C650.792 625.154 654.115 624.556 657.291 622.864C660.31 621.255 663.798 618.013 665.539 612.613L659.831 612.104C659.143 614.352 657.99 616.954 655.676 618.187C653.206 619.502 650.752 619.745 649.333 619.471L645.627 612.749L660.455 604.495C657.445 599.035 651.852 589.627 642.285 594.724C637.501 597.272 636.42 599.729 635.735 602.259C634.977 601.989 633.869 601.727 632.882 601.685C629.779 601.67 627.855 602.411 625.659 603.581C620.836 606.15 618.952 608.715 617.646 614.167L617.487 614.891L623.194 614.477L623.375 613.884C624.45 609.762 625.581 609.053 627.62 607.967L627.973 607.779C632.639 605.293 635.68 608.784 637.147 611.446C635.415 611.8 633.801 612.092 630.781 613.701C622.782 617.962 623.071 624.375 625.597 628.957C627.079 631.646 629.566 633.764 633.604 633.636C636.297 633.551 639.072 632.604 641.543 631.288C645.582 629.137 647.042 626.265 647.704 624.705Z" fill="black"/>
<path d="M669.755 605.223C668.228 602.452 668.815 599.193 671.874 597.564C673.991 596.436 675.774 595.806 677.839 595.593L680.062 599.627C680.696 601.88 680.597 605.198 677.068 607.078C673.814 608.812 671.389 608.187 669.755 605.223ZM681.705 588.529C679.255 584.084 678.295 581.33 683.314 578.656C686.059 577.194 689.039 580.576 690.642 583.484C687.348 585.239 685.104 586.505 681.705 588.529ZM686.051 604.6C689.139 605.049 692.461 604.451 695.638 602.759C698.657 601.15 702.145 597.908 703.886 592.508L698.178 591.999C697.489 594.247 696.336 596.849 694.023 598.082C691.553 599.398 689.099 599.64 687.68 599.366L683.974 592.644L698.802 584.39C695.792 578.93 690.199 569.522 680.631 574.619C675.848 577.167 674.767 579.624 674.082 582.154C673.324 581.884 672.216 581.622 671.229 581.58C668.126 581.565 666.201 582.306 664.005 583.476C659.182 586.045 657.299 588.61 655.993 594.062L655.834 594.786L661.541 594.372L661.721 593.779C662.797 589.657 663.928 588.948 665.967 587.862L666.32 587.674C670.986 585.188 674.027 588.679 675.494 591.341C673.762 591.695 672.147 591.987 669.128 593.596C661.129 597.857 661.418 604.27 663.944 608.852C665.426 611.541 667.913 613.659 671.951 613.531C674.643 613.446 677.419 612.499 679.889 611.183C683.928 609.032 685.389 606.16 686.051 604.6Z" fill="black"/>
<path d="M704.696 585.119C703.168 582.348 703.756 579.089 706.814 577.46C708.932 576.332 710.715 575.702 712.779 575.489L715.002 579.523C715.636 581.776 715.538 585.094 712.009 586.974C708.754 588.708 706.329 588.083 704.696 585.119ZM716.646 568.425C714.195 563.98 713.235 561.226 718.254 558.552C720.999 557.09 723.979 560.472 725.583 563.38C722.289 565.135 720.045 566.401 716.646 568.425ZM720.991 584.496C724.079 584.945 727.402 584.347 730.578 582.655C733.597 581.046 737.085 577.804 738.826 572.404L733.118 571.895C732.43 574.143 731.277 576.745 728.963 577.978C726.493 579.294 724.039 579.536 722.62 579.262L718.915 572.54L733.742 564.286C730.732 558.826 725.14 549.418 715.572 554.515C710.788 557.063 709.707 559.52 709.022 562.05C708.264 561.78 707.156 561.518 706.169 561.476C703.066 561.461 701.142 562.202 698.946 563.372C694.123 565.941 692.239 568.506 690.933 573.958L690.774 574.682L696.481 574.268L696.662 573.675C697.737 569.553 698.868 568.844 700.907 567.758L701.26 567.57C705.926 565.084 708.967 568.575 710.434 571.237C708.702 571.591 707.088 571.883 704.069 573.492C696.069 577.753 696.358 584.166 698.884 588.748C700.366 591.437 702.853 593.555 706.891 593.427C709.584 593.342 712.359 592.395 714.83 591.079C718.869 588.928 720.329 586.056 720.991 584.496Z" fill="black"/>
<path d="M577.811 655.319C576.283 652.548 576.871 649.289 579.929 647.66C582.047 646.532 583.83 645.901 585.894 645.689L588.118 649.722C588.751 651.976 588.653 655.294 585.124 657.174C581.869 658.908 579.445 658.282 577.811 655.319ZM589.761 638.624C587.31 634.18 586.35 631.426 591.369 628.752C594.114 627.29 597.095 630.671 598.698 633.58C595.404 635.334 593.16 636.601 589.761 638.624ZM594.106 654.696C597.195 655.145 600.517 654.546 603.693 652.854C606.713 651.246 610.201 648.003 611.942 642.604L606.233 642.095C605.545 644.343 604.392 646.945 602.079 648.177C599.608 649.493 597.155 649.735 595.736 649.462L592.03 642.74L606.858 634.486C603.848 629.026 598.255 619.618 588.687 624.715C583.903 627.263 582.823 629.72 582.138 632.25C581.38 631.979 580.272 631.718 579.285 631.676C576.182 631.66 574.257 632.402 572.061 633.571C567.238 636.141 565.355 638.706 564.049 644.158L563.89 644.882L569.597 644.468L569.777 643.875C570.852 639.753 571.983 639.044 574.022 637.957L574.375 637.769C579.042 635.284 582.082 638.775 583.55 641.436C581.818 641.791 580.203 642.083 577.184 643.692C569.184 647.953 569.473 654.366 571.999 658.948C573.482 661.636 575.968 663.755 580.007 663.627C582.699 663.541 585.475 662.595 587.945 661.279C591.984 659.127 593.444 656.255 594.106 654.696Z" fill="black"/>
<rect width="52.9598" height="28.025" transform="matrix(0.872456 -0.488692 0.501511 0.865151 736.248 545.454)" fill="white"/>
<rect width="428.547" height="40.3555" transform="matrix(-0.178831 -0.98388 0.979101 -0.203376 1213.28 669.158)" fill="#67467C"/>
<path d="M1170.32 250.043L1180.31 303.023L1153.76 308.108L1143.77 255.128L1170.32 250.043Z" fill="white"/>
<path d="M844.309 812.669C844.309 823.985 851.706 833.709 864.224 833.709H864.509V836.097C864.509 840.988 864.566 844.172 864.566 846.845C864.566 849.972 864.509 852.417 864.281 855.943L873.443 856C873.727 850.257 873.784 847.072 873.784 840.533V833.026C880.897 831.832 884.254 829.216 886.871 826.487C896.715 816.251 897 804.252 897 793.391V791.287V790.605C897 786.852 896.203 778.777 894.155 774L885.051 776.502C886.871 780.483 888.123 786.283 888.123 791.515C888.123 805.049 887.497 810.849 882.547 817.957C880.498 820.857 877.54 822.847 873.784 823.928C873.841 808.972 873.955 797.144 873.955 783.724V775.479H864.85V780.767C864.85 794.074 864.623 808.574 864.566 824.724C857.51 824.042 853.185 819.834 853.185 810.621V800.897C853.185 789.24 853.072 778.89 852.104 774.796L843 776.331C844.195 779.971 844.309 790.662 844.309 802.262V812.669Z" fill="white"/>
<path d="M909.488 201.31C905.458 196.022 903.443 184.866 903.443 177.332C903.443 158.352 906.969 148.065 911.934 141.618C916.108 136.112 920.139 134.084 926.975 134.084C933.308 134.084 938.346 137.126 942.52 145.385C946.334 152.846 947.629 163.93 947.629 172.261V173.637C947.557 181.388 945.398 193.414 942.52 198.05C939.281 204.063 934.1 208.916 925.752 208.916C917.98 208.916 913.014 206.019 909.488 201.31ZM926.615 123C915.389 123.217 907.329 128.433 902.579 134.953C897.541 141.835 892 152.629 892 177.621C892 190.661 895.454 201.672 901.931 209.641C907.76 216.885 916.972 220 925.752 220C937.626 220 946.982 213.987 952.379 203.556C955.834 196.819 959 185.735 959 173.854V173.058C958.64 128.361 935.539 123 926.615 123ZM910.351 166.32V177.404H940.145V166.32H910.351Z" fill="white"/>
<path d="M1036.79 254.273L1031.76 260.523C1035.52 264.527 1038.98 265.846 1043.77 265.846C1046.21 265.846 1048.51 265.553 1050.75 265.211C1052.85 264.869 1055.15 264.332 1057.34 264.137C1056.07 264.723 1054.17 265.65 1052.27 266.383C1046.89 268.531 1042.84 271.412 1042.84 276.783C1042.84 285.279 1048.26 286.5 1050.31 287.037C1044.65 288.795 1033.91 295.826 1033.91 308.131C1033.91 321.168 1041.33 324 1051.14 324H1059.1H1060.08C1064.38 324 1066.87 324.146 1066.87 327.76C1066.87 330.787 1062.28 331.52 1058.17 332.154L1059.15 339.625C1063.54 339.137 1074.48 337.379 1074.48 327.223C1074.48 319.557 1068.04 316.627 1059.49 316.627C1059.35 316.627 1053.63 316.676 1053.49 316.676C1046.16 316.676 1041.67 315.162 1041.67 309.303C1041.67 297.291 1054.37 291.773 1066.23 290.064V282.545C1058.91 282.545 1051.34 281.471 1051.34 276.93C1051.34 271.461 1063.5 266.969 1069.6 264.674L1067.55 256.812C1061.15 257.691 1053 257.984 1044.94 257.984C1040.99 257.984 1038.74 256.324 1036.79 254.273Z" fill="white"/>
<path d="M1024.79 322.273L1019.76 328.523C1023.52 332.527 1026.98 333.846 1031.77 333.846C1034.21 333.846 1036.51 333.553 1038.75 333.211C1040.85 332.869 1043.15 332.332 1045.34 332.137C1044.07 332.723 1042.17 333.65 1040.27 334.383C1034.89 336.531 1030.84 339.412 1030.84 344.783C1030.84 353.279 1036.26 354.5 1038.31 355.037C1032.65 356.795 1021.91 363.826 1021.91 376.131C1021.91 389.168 1029.33 392 1039.14 392H1047.1H1048.08C1052.38 392 1054.87 392.146 1054.87 395.76C1054.87 398.787 1050.28 399.52 1046.17 400.154L1047.15 407.625C1051.54 407.137 1062.48 405.379 1062.48 395.223C1062.48 387.557 1056.04 384.627 1047.49 384.627C1047.35 384.627 1041.63 384.676 1041.49 384.676C1034.16 384.676 1029.67 383.162 1029.67 377.303C1029.67 365.291 1042.37 359.773 1054.23 358.064V350.545C1046.91 350.545 1039.34 349.471 1039.34 344.93C1039.34 339.461 1051.5 334.969 1057.6 332.674L1055.55 324.812C1049.15 325.691 1041 325.984 1032.94 325.984C1028.99 325.984 1026.74 324.324 1024.79 322.273Z" fill="white"/>
<path d="M1015.79 398.273L1010.76 404.523C1014.52 408.527 1017.98 409.846 1022.77 409.846C1025.21 409.846 1027.51 409.553 1029.75 409.211C1031.85 408.869 1034.15 408.332 1036.34 408.137C1035.07 408.723 1033.17 409.65 1031.27 410.383C1025.89 412.531 1021.84 415.412 1021.84 420.783C1021.84 429.279 1027.26 430.5 1029.31 431.037C1023.65 432.795 1012.91 439.826 1012.91 452.131C1012.91 465.168 1020.33 468 1030.14 468H1038.1H1039.08C1043.38 468 1045.87 468.146 1045.87 471.76C1045.87 474.787 1041.28 475.52 1037.17 476.154L1038.15 483.625C1042.54 483.137 1053.48 481.379 1053.48 471.223C1053.48 463.557 1047.04 460.627 1038.49 460.627C1038.35 460.627 1032.63 460.676 1032.49 460.676C1025.16 460.676 1020.67 459.162 1020.67 453.303C1020.67 441.291 1033.37 435.773 1045.23 434.064V426.545C1037.91 426.545 1030.34 425.471 1030.34 420.93C1030.34 415.461 1042.5 410.969 1048.6 408.674L1046.55 400.812C1040.15 401.691 1032 401.984 1023.94 401.984C1019.99 401.984 1017.74 400.324 1015.79 398.273Z" fill="white"/>
<path d="M1002.79 471.273L997.758 477.523C1001.52 481.527 1004.98 482.846 1009.77 482.846C1012.21 482.846 1014.51 482.553 1016.75 482.211C1018.85 481.869 1021.15 481.332 1023.34 481.137C1022.07 481.723 1020.17 482.65 1018.27 483.383C1012.89 485.531 1008.84 488.412 1008.84 493.783C1008.84 502.279 1014.26 503.5 1016.31 504.037C1010.65 505.795 999.906 512.826 999.906 525.131C999.906 538.168 1007.33 541 1017.14 541H1025.1H1026.08C1030.38 541 1032.87 541.146 1032.87 544.76C1032.87 547.787 1028.28 548.52 1024.17 549.154L1025.15 556.625C1029.54 556.137 1040.48 554.379 1040.48 544.223C1040.48 536.557 1034.04 533.627 1025.49 533.627C1025.35 533.627 1019.63 533.676 1019.49 533.676C1012.16 533.676 1007.67 532.162 1007.67 526.303C1007.67 514.291 1020.37 508.773 1032.23 507.064V499.545C1024.91 499.545 1017.34 498.471 1017.34 493.93C1017.34 488.461 1029.5 483.969 1035.6 481.674L1033.55 473.812C1027.15 474.691 1019 474.984 1010.94 474.984C1006.99 474.984 1004.74 473.324 1002.79 471.273Z" fill="white"/>
<path d="M989.787 540.273L984.758 546.523C988.518 550.527 991.984 551.846 996.77 551.846C999.211 551.846 1001.51 551.553 1003.75 551.211C1005.85 550.869 1008.15 550.332 1010.34 550.137C1009.07 550.723 1007.17 551.65 1005.27 552.383C999.895 554.531 995.842 557.412 995.842 562.783C995.842 571.279 1001.26 572.5 1003.31 573.037C997.648 574.795 986.906 581.826 986.906 594.131C986.906 607.168 994.328 610 1004.14 610H1012.1H1013.08C1017.38 610 1019.87 610.146 1019.87 613.76C1019.87 616.787 1015.28 617.52 1011.17 618.154L1012.15 625.625C1016.54 625.137 1027.48 623.379 1027.48 613.223C1027.48 605.557 1021.04 602.627 1012.49 602.627C1012.35 602.627 1006.63 602.676 1006.49 602.676C999.162 602.676 994.67 601.162 994.67 595.303C994.67 583.291 1007.37 577.773 1019.23 576.064V568.545C1011.91 568.545 1004.34 567.471 1004.34 562.93C1004.34 557.461 1016.5 552.969 1022.6 550.674L1020.55 542.812C1014.15 543.691 1006 543.984 997.941 543.984C993.986 543.984 991.74 542.324 989.787 540.273Z" fill="white"/>
<path d="M1168.28 338.929C1170.65 334.463 1173.19 329.714 1175.16 326.06C1178.62 319.653 1180.55 320.674 1181.25 321.062L1181.28 321.076C1184.18 322.669 1183.78 325.181 1181.43 329.53L1181.16 330.019C1179.65 332.758 1176.59 336.719 1174.66 337.792C1172.8 338.974 1170.62 339.548 1168.28 338.929ZM1166.13 342.958C1169.87 344.337 1173.71 343.811 1177.1 341.565C1179.65 339.86 1182.92 336.554 1185.2 332.334L1185.36 332.051C1190.61 322.324 1186.89 319.285 1183.25 317.29C1179.49 315.224 1175.4 315.819 1171.02 323.924L1164.18 336.585C1162.86 335.327 1162.19 333.86 1161.93 332.214C1161.48 329.532 1162.83 325.139 1164.28 322.463C1166.95 317.522 1169.32 315.322 1172.61 314.323L1170.57 310.199C1167.01 310.949 1163.28 314.446 1160.12 320.313C1157.61 324.945 1156.76 329.545 1157.58 333.667C1158.14 336.472 1159.84 338.842 1162.01 340.599C1159.19 345.823 1156.91 350.043 1156.67 350.612L1160.89 352.988C1161.15 352.434 1163.35 348.236 1166.13 342.958Z" fill="white"/>
<path d="M1179.14 375.664C1181.52 371.198 1184.05 366.448 1186.02 362.794C1189.48 356.387 1191.41 357.409 1192.11 357.796L1192.14 357.81C1195.04 359.403 1194.64 361.915 1192.29 366.264L1192.02 366.753C1190.51 369.492 1187.45 373.453 1185.52 374.526C1183.66 375.708 1181.48 376.283 1179.14 375.664ZM1176.99 379.692C1180.73 381.072 1184.57 380.546 1187.96 378.299C1190.51 376.595 1193.78 373.289 1196.06 369.069L1196.22 368.786C1201.47 359.059 1197.75 356.019 1194.12 354.025C1190.35 351.958 1186.26 352.553 1181.88 360.659L1175.04 373.319C1173.72 372.061 1173.05 370.595 1172.79 368.949C1172.34 366.267 1173.69 361.873 1175.14 359.197C1177.81 354.257 1180.18 352.057 1183.47 351.058L1181.43 346.934C1177.87 347.683 1174.14 351.18 1170.98 357.047C1168.47 361.679 1167.62 366.279 1168.44 370.401C1169 373.207 1170.7 375.576 1172.87 377.334C1170.05 382.557 1167.77 386.777 1167.53 387.347L1171.75 389.723C1172.01 389.168 1174.21 384.971 1176.99 379.692Z" fill="white"/>
<path d="M1188.45 442.097C1190.82 437.631 1193.36 432.882 1195.33 429.228C1198.79 422.82 1200.72 423.842 1201.42 424.23L1201.45 424.244C1204.35 425.837 1203.95 428.349 1201.6 432.698L1201.33 433.186C1199.82 435.926 1196.76 439.887 1194.83 440.96C1192.97 442.142 1190.79 442.716 1188.45 442.097ZM1186.3 446.126C1190.04 447.505 1193.88 446.979 1197.27 444.732C1199.82 443.028 1203.09 439.722 1205.37 435.502L1205.53 435.219C1210.78 425.492 1207.06 422.453 1203.42 420.458C1199.66 418.392 1195.57 418.987 1191.19 427.092L1184.35 439.753C1183.03 438.494 1182.36 437.028 1182.1 435.382C1181.65 432.7 1183 428.307 1184.45 425.631C1187.12 420.69 1189.49 418.49 1192.78 417.491L1190.73 413.367C1187.18 414.117 1183.45 417.614 1180.29 423.481C1177.78 428.113 1176.93 432.713 1177.75 436.835C1178.31 439.64 1180.01 442.01 1182.18 443.767C1179.36 448.991 1177.08 453.211 1176.84 453.78L1181.06 456.156C1181.32 455.601 1183.52 451.404 1186.3 446.126Z" fill="white"/>
<path d="M1196.2 478.831C1198.58 474.365 1201.11 469.616 1203.09 465.962C1206.55 459.554 1208.47 460.576 1209.18 460.964L1209.2 460.978C1212.11 462.571 1211.7 465.083 1209.35 469.431L1209.09 469.92C1207.58 472.659 1204.52 476.621 1202.58 477.694C1200.72 478.876 1198.55 479.45 1196.2 478.831ZM1194.06 482.86C1197.79 484.239 1201.64 483.713 1205.02 481.466C1207.57 479.762 1210.85 476.456 1213.13 472.236L1213.28 471.953C1218.54 462.226 1214.82 459.187 1211.18 457.192C1207.41 455.126 1203.33 455.72 1198.95 463.826L1192.11 476.487C1190.79 475.228 1190.12 473.762 1189.86 472.116C1189.41 469.434 1190.76 465.041 1192.21 462.365C1194.88 457.424 1197.25 455.224 1200.54 454.225L1198.49 450.101C1194.93 450.851 1191.21 454.348 1188.04 460.215C1185.54 464.847 1184.68 469.447 1185.51 473.569C1186.06 476.374 1187.77 478.743 1189.94 480.501C1187.12 485.725 1184.84 489.945 1184.6 490.514L1188.81 492.89C1189.08 492.335 1191.28 488.138 1194.06 482.86Z" fill="white"/>
<path d="M1212.49 580.436C1214.87 575.97 1217.4 571.22 1219.38 567.566C1222.84 561.159 1224.76 562.181 1225.47 562.568L1225.5 562.582C1228.4 564.175 1227.99 566.687 1225.64 571.036L1225.38 571.525C1223.87 574.264 1220.81 578.225 1218.88 579.298C1217.02 580.48 1214.84 581.055 1212.49 580.436ZM1210.35 584.464C1214.08 585.844 1217.93 585.318 1221.32 583.071C1223.86 581.367 1227.14 578.061 1229.42 573.841L1229.57 573.558C1234.83 563.831 1231.11 560.791 1227.47 558.797C1223.7 556.73 1219.62 557.325 1215.24 565.431L1208.4 578.091C1207.08 576.833 1206.41 575.367 1206.15 573.721C1205.7 571.039 1207.05 566.645 1208.5 563.969C1211.17 559.029 1213.54 556.829 1216.83 555.83L1214.78 551.706C1211.22 552.455 1207.5 555.952 1204.33 561.819C1201.83 566.451 1200.97 571.051 1201.8 575.173C1202.36 577.979 1204.06 580.348 1206.23 582.106C1203.41 587.329 1201.13 591.549 1200.89 592.119L1205.1 594.495C1205.37 593.94 1207.57 589.742 1210.35 584.464Z" fill="white"/>
<path d="M1220.25 620.296C1222.63 615.83 1225.16 611.081 1227.14 607.427C1230.6 601.019 1232.52 602.041 1233.23 602.428L1233.25 602.443C1236.16 604.036 1235.75 606.547 1233.4 610.896L1233.14 611.385C1231.63 614.124 1228.57 618.086 1226.63 619.159C1224.77 620.34 1222.6 620.915 1220.25 620.296ZM1218.11 624.325C1221.84 625.704 1225.69 625.178 1229.07 622.931C1231.62 621.227 1234.9 617.921 1237.18 613.701L1237.33 613.418C1242.59 603.691 1238.87 600.652 1235.23 598.657C1231.46 596.591 1227.38 597.185 1223 605.291L1216.16 617.952C1214.84 616.693 1214.17 615.227 1213.91 613.581C1213.45 610.899 1214.81 606.506 1216.26 603.83C1218.92 598.889 1221.3 596.689 1224.59 595.69L1222.54 591.566C1218.98 592.316 1215.26 595.813 1212.09 601.68C1209.59 606.311 1208.73 610.912 1209.56 615.034C1210.11 617.839 1211.82 620.208 1213.99 621.966C1211.17 627.19 1208.89 631.41 1208.65 631.979L1212.86 634.355C1213.13 633.8 1215.33 629.603 1218.11 624.325Z" fill="white"/>
<path d="M1203.19 521.817C1205.56 517.351 1208.1 512.602 1210.07 508.948C1213.53 502.541 1215.45 503.562 1216.16 503.95L1216.19 503.964C1219.09 505.557 1218.69 508.069 1216.34 512.418L1216.07 512.907C1214.56 515.646 1211.5 519.607 1209.57 520.68C1207.71 521.862 1205.53 522.436 1203.19 521.817ZM1201.04 525.846C1204.78 527.226 1208.62 526.699 1212.01 524.453C1214.56 522.748 1217.83 519.443 1220.11 515.222L1220.27 514.939C1225.52 505.212 1221.8 502.173 1218.16 500.179C1214.4 498.112 1210.31 498.707 1205.93 506.813L1199.09 519.473C1197.77 518.215 1197.1 516.748 1196.84 515.103C1196.39 512.421 1197.74 508.027 1199.19 505.351C1201.86 500.41 1204.23 498.211 1207.52 497.211L1205.47 493.087C1201.91 493.837 1198.19 497.334 1195.02 503.201C1192.52 507.833 1191.67 512.433 1192.49 516.555C1193.05 519.36 1194.75 521.73 1196.92 523.487C1194.1 528.711 1191.82 532.931 1191.58 533.5L1195.8 535.876C1196.06 535.322 1198.26 531.124 1201.04 525.846Z" fill="white"/>
</svg>
