<svg width="252" height="244" viewBox="0 0 252 244" fill="none" xmlns="http://www.w3.org/2000/svg">
<path d="M231.371 243.939L251.942 205.742C242.335 202.338 230.782 195.982 230.408 184.173L226.654 65.3947C225.614 32.5165 211.635 0.742504 182.934 1.64979L181.082 1.70832C160.02 2.37415 146.342 24.1292 137.221 43.4226C134.619 27.0493 124.143 3.50825 98.6828 4.3131C78.0828 4.9643 64.0206 21.8644 57.5864 30.875C55.6953 22.3593 54.3011 7.57022 50.5949 0.270783L0.619789 17.1473C4.91325 28.3683 8.40254 36.1381 9.08323 57.6711L15.4162 243.349L67.2632 241.71L62.8057 100.704C67.122 76.0002 81.4496 52.834 87.0046 52.6584C93.0226 52.4681 93.5953 55.9266 93.8661 64.4934L99.4287 240.462L151.515 239.047L147.586 100.11C150.416 87.0415 161.303 50.3097 166.395 50.1487C173.339 49.9292 174.816 52.6638 175.586 62.3737L179.458 184.857L179.473 185.32C180.98 233.017 214.835 241.217 231.371 243.939Z" fill="white"/>
</svg>
