<svg width="309" height="295" viewBox="0 0 309 295" fill="none" xmlns="http://www.w3.org/2000/svg">
<path d="M306.43 202.852L308.732 159.529C298.591 160.55 285.43 159.733 280.053 149.213L225.965 43.3978C210.993 14.1077 184.79 -8.66122 159.222 4.40832L157.572 5.25152C138.808 14.8429 135.723 40.3543 135.709 61.6951C126.367 47.9987 106.847 31.1798 84.1651 42.7738C65.8133 52.1543 60.3087 73.4395 58.3354 84.3343C52.9909 77.4402 45.4183 64.6606 38.9514 59.641L0.958703 96.2318C9.6304 104.547 16.102 110.085 25.9074 129.268L110.879 294.484L157.067 270.874L92.8573 145.257C86.2176 121.074 89.288 94.0086 94.2367 91.4791C99.5979 88.7387 101.592 91.6219 105.493 99.2538L185.623 256.018L232.124 232.509L169.275 108.537C166.258 95.5107 160.427 57.6458 164.963 55.327C171.149 52.165 173.651 54.0078 178.492 62.4603L234.267 171.576L234.478 171.989C256.198 214.48 290.314 207.448 306.43 202.852Z" fill="white"/>
</svg>
