<svg width="622" height="228" viewBox="0 0 622 228" fill="none" xmlns="http://www.w3.org/2000/svg">
<path d="M115.077 168.077C107.586 175.593 102.175 178.308 90.73 178.516C65.5504 178.516 52.4403 153.67 52.4403 119.011C52.4403 75.5824 61.8046 46.3517 93.2272 46.3517C119.864 46.3517 127.147 72.8681 127.563 105.648V108.989C127.563 135.506 124.858 157.22 115.077 168.077ZM90.5219 220.901H90.9381C160.858 220.901 180.836 165.78 180.836 106.275C180.836 86.2308 177.09 62.6374 168.558 46.1429C153.991 18.5824 131.101 4.17582 90.1057 4.17582C29.3416 4.17582 0 45.3077 0 122.769C0 181.231 26.012 220.901 90.5219 220.901Z" fill="white"/>
<path d="M275.936 26.0989C274.479 15.8681 270.109 5.01099 268.028 0L219.75 10.022C224.744 29.6484 226.409 35.0769 226.409 72.2418V219.648H278.641V72.033C296.329 56.5824 318.387 48.6484 331.497 48.6484C345.44 48.6484 348.561 58.2527 348.561 73.7033V173.297C348.561 206.286 378.943 221.736 398.713 228L422.852 186.242C411.198 179.978 400.794 175.385 400.794 161.604V53.4506C400.794 19.2088 372.492 5.42857 338.365 5.42857C315.474 5.42857 287.589 15.6593 275.936 26.0989Z" fill="white"/>
<path d="M556.242 168.077C548.75 175.593 543.34 178.308 531.894 178.516C506.715 178.516 493.605 153.67 493.605 119.011C493.605 75.5824 502.969 46.3517 534.391 46.3517C561.028 46.3517 568.311 72.8681 568.727 105.648V108.989C568.727 135.506 566.022 157.22 556.242 168.077ZM531.686 220.901H532.102C602.023 220.901 622 165.78 622 106.275C622 86.2308 618.254 62.6374 609.722 46.1429C595.156 18.5824 572.265 4.17582 531.27 4.17582C470.506 4.17582 441.164 45.3077 441.164 122.769C441.164 181.231 467.176 220.901 531.686 220.901Z" fill="white"/>
</svg>
