<svg width="414" height="335" viewBox="0 0 414 335" fill="none" xmlns="http://www.w3.org/2000/svg">
<path d="M325.519 232.803C267.362 292.675 222.513 289.241 187.516 256.161C167.978 237.694 168.686 212.798 168.002 191.455L257.6 99.2143C296.272 89.5051 316.031 89.5144 345.446 117.317C381.946 151.817 367.441 189.644 325.519 232.803ZM232.532 58.8815L50.4482 245.911C31.7476 265.163 13.093 286.487 0.0237957 303.758L36.0118 334.121C48.4829 318.314 63.8127 298.717 83.1298 278.83L125.669 235.037C129.604 251.336 131.187 265.818 152.658 286.112C222.008 351.662 294.084 331.73 363.133 260.645C418.207 203.946 436.128 140.131 377.084 84.3223C353.037 61.5929 328.667 52.7623 303.633 51.8245C312.049 42.736 315.497 37.0669 320.999 29.2823L281.677 0.23123C270.261 16.2237 254.52 36.2444 237.464 53.8041L232.532 58.8815Z" fill="black"/>
</svg>
