<svg width="1440" height="928" viewBox="0 0 1440 928" fill="none" xmlns="http://www.w3.org/2000/svg">
<path d="M84.1391 904.769C75.9262 904.787 39.4442 905.297 28.8106 905.32C28.6256 899.704 28.6217 897.889 28.6161 895.297L28.6004 887.952C28.592 884.064 29.015 879.743 30.4778 876.542L13.0018 870.704C11.4531 874.164 9.9094 879.956 9.9261 887.733C9.94874 898.275 10.1146 894.991 10.1369 905.36L-12.1678 905.408C-12.2883 889.595 -12.2927 887.522 -12.312 878.535L-12.325 872.487C-12.2567 864.019 -11.1369 862.115 -9.93141 859.866L-27.4957 853.164C-28.9591 856.105 -30.4204 859.996 -30.4015 868.81L-30.2744 927.999L83.9291 927.754L84.1391 904.769Z" fill="black"/>
<path d="M56.5489 818.766C47.0392 818.786 43.3015 809.376 43.2893 803.673C43.2774 798.143 46.2042 792.261 49.8285 789.143L53.8917 789.134C58.7364 790.679 67.5698 797.745 67.5902 807.25C67.602 812.78 65.0213 818.748 56.5489 818.766ZM56.5243 767.008L27.2169 767.071C6.64127 767.115 -4.99288 784.335 -4.95113 803.777C-4.65875 819.157 -4.82034 824.428 4.7217 839.442L22.6812 828.862C15.9241 822.482 13.0538 814.366 13.0324 804.429C13.0213 799.245 15.6798 789.216 30.0309 789.185C27.7902 792.473 25.9869 798.18 25.9988 803.71C26.0251 815.98 28.8987 825.565 37.3022 833.756C42.5867 838.843 50.1136 841.419 57.8943 841.402C73.6287 841.368 84.9218 826.395 84.8901 811.62C84.8563 795.894 81.9017 788.815 75.1444 782.262C81.3611 778.62 82.3058 775.68 85.7542 771.179L72.8497 760.406C68.9699 765.339 64.4779 766.991 56.5243 767.008Z" fill="black"/>
<path d="M3.61265 725.559C-0.622219 726.173 -5.11384 727.998 -7.18685 728.866L-2.99409 748.904C5.12798 746.812 7.37425 746.116 22.7628 746.083L83.7981 745.952L83.7516 724.264L22.6297 724.395C16.2165 717.064 12.9117 707.912 12.9 702.469C12.8875 696.679 16.8616 695.375 23.259 695.361L64.4968 695.272C78.1563 695.243 84.5266 682.614 87.1026 674.4L69.7906 664.413C67.2074 669.258 65.3147 673.582 59.6089 673.595L14.8266 673.691C0.648401 673.721 -5.03222 685.485 -5.00179 699.656C-4.98139 709.16 -0.72036 720.73 3.61265 725.559Z" fill="black"/>
<path d="M45.847 625.927C37.201 625.6 28.1237 625.706 13.7715 625.218C13.7468 613.726 13.8904 600.073 13.865 588.236L-3.77181 588.014C-3.77033 588.705 -4.05825 615.665 -4.03803 625.084C-9.91697 625.01 -18.303 624.941 -24.0089 624.954L-24.481 646.643C-18.4294 646.63 -9.6975 646.698 -3.64584 646.685L-3.64305 647.981C-3.63693 650.832 -3.28277 654.72 -2.5867 656.792L15.0464 655.285C14.35 653.04 13.999 650.622 13.9938 648.202L13.9912 646.992C28.1703 647.394 37.7669 647.546 45.548 647.702L49.179 647.695C56.6139 647.679 63.1835 647.319 69.4016 644.281C82.1833 638.119 84.0578 625.327 84.0237 609.428C84.0079 602.083 83.302 595.431 80.3519 590.426C74.7981 580.76 65.1055 576.115 62.6829 575.256L54.0763 593.247C55.8067 593.848 61.6874 594.786 64.1178 599.274C65.3327 601.432 66.5486 604.021 66.5607 609.638C66.5631 610.761 66.3965 613.699 66.2269 615.255C65.0322 622.516 60.8897 625.895 49.3051 625.92L45.847 625.927Z" fill="black"/>
<path d="M55.959 543.991C46.4492 544.011 42.7115 534.601 42.6993 528.898C42.6874 523.368 45.6142 517.486 49.2385 514.367L53.3017 514.359C58.1464 515.904 66.9798 522.97 67.0002 532.475C67.0121 538.005 64.4313 543.973 55.959 543.991ZM55.9343 492.233L26.6269 492.296C6.05128 492.34 -5.58287 509.56 -5.54112 529.001C-5.24874 544.381 -5.41033 549.653 4.13171 564.667L22.0912 554.087C15.3341 547.707 12.4638 539.591 12.4424 529.654C12.4313 524.47 15.0898 514.441 29.4409 514.41C27.2002 517.698 25.3969 523.405 25.4088 528.935C25.4352 541.205 28.3087 550.79 36.7122 558.981C41.9967 564.067 49.5236 566.643 57.3043 566.627C73.0387 566.593 84.3318 551.62 84.3001 536.844C84.2663 521.118 81.3117 514.039 74.5544 507.487C80.7711 503.844 81.7158 500.904 85.1643 496.404L72.2597 485.631C68.3799 490.564 63.8879 492.216 55.9343 492.233Z" fill="black"/>
<path d="M35.7126 455.812C39.5857 447.768 43.4454 433.502 47.2365 427.532C50.0804 423.292 52.9294 421.471 58.0301 421.46C65.6379 421.444 67.3879 431.204 67.3988 436.302C67.4191 445.721 63.9699 449.876 54.633 449.896L54.68 471.757C73.2672 471.717 84.9093 458.212 84.8618 436.092C84.8513 431.167 84.235 425.984 83.1007 421.147C80.6602 411.907 73.0257 399.48 59.0204 399.51C34.4679 399.563 31.4874 420.653 22.5438 442.793C20.9929 445.215 19.2649 445.738 16.7578 445.743C13.3862 445.75 11.4783 442.989 11.4631 435.904C11.4453 427.609 14.9763 421.293 19.9805 416.617L5.85591 401.353C-4.58423 410.966 -5.85263 424.19 -5.82684 436.2C-5.79437 451.321 -0.399073 467.727 15.6811 467.693C25.2773 467.672 32.2697 462.905 35.7126 455.812Z" fill="black"/>
<path d="M37.063 359.983C20.3777 360.019 12.8493 356.751 12.8329 349.148C12.809 338.001 18.5933 334.273 26.1928 330.368L56.019 330.391C61.0403 333.663 66.2377 338.405 66.2516 344.885C66.2729 354.822 60.1457 359.933 37.063 359.983ZM18.9718 309.214L16.724 309.219C9.54849 309.234 2.3709 308.299 -3.25035 307.447L-5.45581 327.153C-3.37929 327.926 -0.0929839 328.437 3.2794 328.776C-2.07026 333.626 -4.47534 340.89 -4.45456 350.567C-4.40354 374.329 12.2122 382.157 35.3814 382.107C64.4294 382.044 83.6947 375.695 83.6276 344.416C83.609 335.775 80.4016 331.721 77.7162 329.221C81.175 329.559 84.3748 330.071 88.1793 330.322L96.0465 330.305C104.173 330.287 114.978 329.573 119.47 327.921L116.833 307.535C113.81 308.838 105.337 308.942 97.989 308.958L95.4819 308.963L18.9718 309.214Z" fill="black"/>
<path d="M84.1374 219.469L68.2901 207.147C66.484 211.558 60.7038 217.187 56.2086 217.369L-4.91318 217.5L-4.86661 239.188L46.5725 239.078C57.552 239.054 64.3081 245.002 64.9414 258.135C64.9572 265.479 62.7994 267.126 57.0093 268.175C25.3681 268.416 2.54362 267.946 -5.40592 269.864L-2.93812 291.807C1.98613 290.154 20.5728 289.855 39.2465 289.815C47.546 289.797 55.932 289.866 63.0211 289.85C78.2367 289.818 82.6113 273.737 82.5831 260.603L82.5814 259.825C82.2942 246.864 80.0251 236.932 73.3544 230.466C77.6731 228.642 81.6421 225.005 84.1374 219.469Z" fill="black"/>
<path d="M30.1842 176.122C20.1547 175.625 11.8428 169.854 11.8239 161.04C11.8075 153.436 16.722 147.204 28.0463 146.748C28.071 158.24 28.4342 166.362 30.1842 176.122ZM-5.72558 161.251C-5.67308 185.704 13.2874 198.451 38.0128 198.398C65.0724 198.34 83.4567 184.303 83.4036 159.59C83.3593 138.939 79.1973 133.245 69.4959 124.539L56.0424 139.948C62.4525 145.81 65.5737 149.951 65.5933 159.11C65.6104 167.06 57.9325 174.68 48.3392 176.083C46.5913 167.273 45.3414 148.871 44.9427 124.246C44.9427 124.246 42.9541 124.164 41.2251 124.167C12.1771 124.23 -5.78477 133.687 -5.72558 161.251Z" fill="black"/>
<path d="M1410.19 17.7798C1406.29 26.7116 1402.39 42.5591 1398.58 49.1857C1395.72 53.8916 1392.86 55.908 1387.75 55.907C1380.13 55.9054 1378.4 45.0514 1378.4 39.3845C1378.4 28.915 1381.87 24.3053 1391.22 24.3073L1391.23 0.00663292C1372.61 0.00279201 1360.91 14.9842 1360.91 39.5729C1360.91 45.0478 1361.51 50.8109 1362.64 56.1899C1365.06 66.4678 1372.68 80.3005 1386.71 80.3034C1411.3 80.3085 1414.34 56.873 1423.35 32.286C1424.91 29.597 1426.64 29.021 1429.15 29.0215C1432.53 29.0222 1434.43 32.0962 1434.43 39.9723C1434.43 49.1931 1430.88 56.204 1425.85 61.3897L1439.96 78.3934C1450.44 67.7341 1451.75 53.0387 1451.75 39.6877C1451.75 22.879 1446.39 4.62841 1430.28 4.62509C1420.67 4.6231 1413.65 9.9044 1410.19 17.7798Z" fill="black"/>
<path d="M1390.07 123.335C1399.6 123.336 1403.32 133.807 1403.32 140.146C1403.32 146.293 1400.37 152.824 1396.74 156.281L1392.67 156.28C1387.82 154.55 1378.99 146.672 1378.99 136.107C1378.99 129.96 1381.59 123.333 1390.07 123.335ZM1389.98 180.868L1419.33 180.874C1439.94 180.879 1451.64 161.767 1451.64 140.156C1451.38 123.059 1451.56 117.2 1442.04 100.485L1424.02 112.2C1430.78 119.309 1433.63 128.338 1433.63 139.384C1433.63 145.147 1430.94 156.288 1416.57 156.285C1418.82 152.636 1420.64 146.297 1420.64 140.15C1420.64 126.51 1417.79 115.848 1409.39 106.722C1404.11 101.054 1396.57 98.1708 1388.78 98.1691C1373.02 98.1659 1361.67 114.78 1361.67 131.205C1361.67 148.686 1364.61 156.563 1371.36 163.864C1365.13 167.897 1364.17 171.162 1360.71 176.156L1373.61 188.165C1377.51 182.691 1382.01 180.867 1389.98 180.868Z" fill="black"/>
<path d="M1442.88 227.079C1447.12 226.408 1451.62 224.392 1453.7 223.432L1449.55 201.147C1441.41 203.451 1439.16 204.219 1423.74 204.215L1362.61 204.203L1362.6 228.311L1423.83 228.324C1430.23 236.49 1433.52 246.672 1433.52 252.723C1433.52 259.158 1429.53 260.598 1423.13 260.597L1381.82 260.588C1368.14 260.585 1361.73 274.607 1359.13 283.731L1376.44 294.877C1379.04 289.499 1380.95 284.696 1386.66 284.698L1431.52 284.707C1445.72 284.71 1451.44 271.648 1451.44 255.896C1451.45 245.331 1447.21 232.459 1442.88 227.079Z" fill="black"/>
<path d="M1410.12 323.219C1406.22 332.15 1402.32 347.998 1398.51 354.624C1395.65 359.33 1392.8 361.347 1387.69 361.346C1380.07 361.344 1378.34 350.49 1378.34 344.823C1378.34 334.354 1381.81 329.744 1391.16 329.746L1391.16 305.445C1372.54 305.442 1360.85 320.423 1360.85 345.012C1360.84 350.487 1361.45 356.25 1362.57 361.629C1365 371.907 1372.61 385.739 1386.64 385.742C1411.24 385.747 1414.27 362.312 1423.28 337.725C1424.84 335.036 1426.57 334.46 1429.09 334.46C1432.46 334.461 1434.37 337.535 1434.37 345.411C1434.36 354.632 1430.81 361.643 1425.79 366.828L1439.9 383.832C1450.38 373.173 1451.68 358.477 1451.69 345.126C1451.69 328.318 1446.32 310.067 1430.22 310.064C1420.6 310.062 1413.59 315.343 1410.12 323.219Z" fill="black"/>
<path d="M1359.76 528.071L1373.78 537.102C1375.17 533.165 1377.68 528.459 1382.1 528.46L1426.52 528.469C1438.82 528.471 1450.86 523.095 1450.86 511.185L1450.86 510.416C1450.86 501.676 1442.89 495.719 1435.79 491.683C1441.94 490.82 1450.86 486.788 1450.87 476.223C1450.87 467.674 1444.72 461.622 1441.43 458.836C1444.63 458.164 1450.18 457.781 1452.95 456.341L1447.24 435.401C1442.99 437.033 1440.05 438.377 1432 438.375L1362.55 438.553L1362.54 460.068L1415.28 460.079C1424.46 462.194 1432.94 468.439 1432.94 470.744C1432.94 473.241 1431.64 473.433 1428.44 473.432L1362.62 473.419L1362.53 495.03L1414.49 495.233C1419.34 496.579 1432.94 501.576 1432.93 503.689C1432.93 506.571 1431.89 507.147 1428.26 507.338L1382.45 507.329L1382.28 507.329C1364.44 507.325 1360.97 521.251 1359.76 528.071Z" fill="black"/>
<path d="M1383.9 598.48C1380.78 595.022 1379.66 592.524 1379.57 587.241C1379.58 575.619 1389.88 569.57 1404.26 569.573C1422.27 569.577 1434.39 573.902 1434.39 588.405C1434.39 600.7 1423.39 604.059 1409.79 604.249L1408.41 604.248C1397.41 604.246 1388.4 602.996 1383.9 598.48ZM1362 587.142L1362 587.334C1361.99 619.607 1384.85 628.832 1409.53 628.837C1417.84 628.839 1427.63 627.112 1434.47 623.176C1445.9 616.454 1451.88 605.89 1451.88 586.968C1451.89 558.922 1434.83 545.375 1402.7 545.369C1378.46 545.364 1362 557.366 1362 587.142Z" fill="black"/>
<path d="M1442.77 672.739C1447.02 672.068 1451.52 670.051 1453.6 669.091L1449.44 646.807C1441.3 649.11 1439.05 649.878 1423.64 649.875L1362.5 649.863L1362.5 673.971L1423.72 673.984C1430.13 682.149 1433.42 692.331 1433.41 698.382C1433.41 704.818 1429.43 706.258 1423.02 706.256L1381.71 706.248C1368.03 706.245 1361.62 720.267 1359.02 729.391L1376.34 740.536C1378.94 735.158 1380.84 730.356 1386.56 730.357L1431.42 730.367C1445.62 730.37 1451.34 717.308 1451.34 701.556C1451.34 690.99 1447.1 678.119 1442.77 672.739Z" fill="black"/>
<path d="M1383.86 802.106C1380.74 798.648 1379.62 796.15 1379.53 790.867C1379.53 779.245 1389.84 773.196 1404.22 773.199C1422.23 773.203 1434.35 777.528 1434.35 792.031C1434.34 804.326 1423.35 807.685 1409.75 807.874L1408.37 807.874C1397.37 807.872 1388.36 806.621 1383.86 802.106ZM1361.95 790.768L1361.95 790.96C1361.95 823.233 1384.81 832.458 1409.49 832.463C1417.8 832.465 1427.58 830.738 1434.43 826.801C1445.86 820.08 1451.84 809.516 1451.84 790.594C1451.85 762.548 1434.79 749.001 1402.66 748.994C1378.42 748.989 1361.96 760.992 1361.95 790.768Z" fill="black"/>
</svg>
